<svg enable-background="new 0 0 128 128" viewBox="0 0 128 128" xmlns="http://www.w3.org/2000/svg"><linearGradient id="a" x1="64.1" x2="64.1" y1="747.8" y2="807.8" gradientTransform="translate(0 -714)" gradientUnits="userSpaceOnUse"><stop stop-color="#BDBDBD" offset="0"/><stop stop-color="#9E9E9E" offset="1"/></linearGradient><path d="m120.5 93.9h-112.8c-1.9 0-3.5-1.6-3.5-3.5v-53c0-2 1.6-3.5 3.5-3.5h112.8c1.9 0 3.5 1.6 3.5 3.5v53c0 1.9-1.6 3.5-3.5 3.5z" fill="url(#a)"/><g opacity=".2"><path d="m120.5 36.9c0.3 0 0.5 0.2 0.5 0.5v52.9c0 0.3-0.2 0.5-0.5 0.5h-112.8c-0.3 0-0.5-0.2-0.5-0.5v-53c0-0.3 0.2-0.5 0.5-0.5l112.8 0.1m0-3h-112.8c-1.9 0-3.5 1.6-3.5 3.5v52.9c0 1.9 1.6 3.5 3.5 3.5h112.8c1.9 0 3.5-1.6 3.5-3.5v-53c0-1.8-1.6-3.4-3.5-3.4z" fill="#424242"/></g><g fill="#F5F5F5"><path d="m18.4 50h-4.7c-0.9 0-1.6-0.7-1.6-1.7v-4.7c0-0.9 0.7-1.7 1.6-1.7h4.7c0.9 0 1.6 0.7 1.6 1.7v4.7c0 0.9-0.7 1.7-1.6 1.7z"/><path d="m29.8 50h-4.7c-0.9 0-1.6-0.7-1.6-1.7v-4.7c0-0.9 0.7-1.7 1.6-1.7h4.7c0.9 0 1.6 0.7 1.6 1.7v4.7c0 0.9-0.7 1.7-1.6 1.7z"/><path d="m41.2 50h-4.7c-0.9 0-1.7-0.7-1.7-1.7v-4.7c0-0.9 0.7-1.7 1.7-1.7h4.7c0.9 0 1.7 0.7 1.7 1.7v4.7c0 0.9-0.8 1.7-1.7 1.7z"/><path d="m52.7 50h-4.7c-0.9 0-1.7-0.7-1.7-1.7v-4.7c0-0.9 0.7-1.7 1.7-1.7h4.7c0.9 0 1.7 0.7 1.7 1.7v4.7c-0.1 0.9-0.8 1.7-1.7 1.7z"/><path d="m64.1 50h-4.7c-0.9 0-1.7-0.7-1.7-1.7v-4.7c0-0.9 0.7-1.7 1.7-1.7h4.7c0.9 0 1.7 0.7 1.7 1.7v4.7c0 0.9-0.8 1.7-1.7 1.7z"/><path d="m75.6 50h-4.7c-0.9 0-1.7-0.7-1.7-1.7v-4.7c0-0.9 0.7-1.7 1.7-1.7h4.7c0.9 0 1.7 0.7 1.7 1.7v4.7c-0.1 0.9-0.8 1.7-1.7 1.7z"/><path d="M87,50h-4.7c-0.9,0-1.7-0.7-1.7-1.7v-4.7c0-0.9,0.7-1.7,1.7-1.7H87c0.9,0,1.7,0.7,1.7,1.7v4.7 C88.6,49.2,87.9,50,87,50z"/><path d="m98.4 50h-4.7c-0.9 0-1.7-0.7-1.7-1.7v-4.7c0-0.9 0.7-1.7 1.7-1.7h4.7c0.9 0 1.7 0.7 1.7 1.7v4.7c0 0.9-0.8 1.7-1.7 1.7z"/><path d="m114.4 50h-8.7c-0.9 0-1.7-0.7-1.7-1.7v-4.7c0-0.9 0.7-1.7 1.7-1.7h8.7c0.9 0 1.7 0.7 1.7 1.7v4.7c0 0.9-0.8 1.7-1.7 1.7z"/><path d="m109.7 62h4.7c0.9 0 1.7-0.7 1.7-1.7v-4.7c0-0.9-0.7-1.7-1.7-1.7h-4.7c-0.9 0-1.7 0.7-1.7 1.7v4.7c0 0.9 0.8 1.7 1.7 1.7z"/><path d="m98.3 62h4.7c0.9 0 1.7-0.7 1.7-1.7v-4.7c0-0.9-0.7-1.7-1.7-1.7h-4.7c-0.9 0-1.7 0.7-1.7 1.7v4.7c0 0.9 0.7 1.7 1.7 1.7z"/><path d="m86.8 62h4.7c0.9 0 1.7-0.7 1.7-1.7v-4.7c0-0.9-0.7-1.7-1.7-1.7h-4.7c-0.9 0-1.7 0.7-1.7 1.7v4.7c0.1 0.9 0.8 1.7 1.7 1.7z"/><path d="m75.4 62h4.7c0.9 0 1.7-0.7 1.7-1.7v-4.7c0-0.9-0.7-1.7-1.7-1.7h-4.7c-0.9 0-1.7 0.7-1.7 1.7v4.7c0 0.9 0.8 1.7 1.7 1.7z"/><path d="m63.9 62h4.7c0.9 0 1.7-0.7 1.7-1.7v-4.7c0-0.9-0.7-1.7-1.7-1.7h-4.7c-0.9 0-1.7 0.7-1.7 1.7v4.7c0.1 0.9 0.8 1.7 1.7 1.7z"/><path d="m52.5 62h4.7c0.9 0 1.7-0.7 1.7-1.7v-4.7c0-0.9-0.7-1.7-1.7-1.7h-4.7c-0.9 0-1.7 0.7-1.7 1.7v4.7c0 0.9 0.8 1.7 1.7 1.7z"/><path d="m41.1 62h4.7c0.9 0 1.7-0.7 1.7-1.7v-4.7c0-0.9-0.7-1.7-1.7-1.7h-4.7c-0.9 0-1.7 0.7-1.7 1.7v4.7c0 0.9 0.8 1.7 1.7 1.7z"/><path d="m29.6 62h4.7c0.9 0 1.7-0.7 1.7-1.7v-4.7c0-0.9-0.7-1.7-1.7-1.7h-4.7c-0.9 0-1.6 0.7-1.6 1.7v4.7c0 0.9 0.7 1.7 1.6 1.7z"/><path d="m13.6 62h8.7c0.9 0 1.6-0.7 1.6-1.7v-4.7c0-0.9-0.7-1.7-1.6-1.7h-8.7c-0.9 0-1.6 0.7-1.6 1.7v4.7c0 0.9 0.7 1.7 1.6 1.7z"/><path d="m81.7 74h4.7c0.9 0 1.6-0.7 1.6-1.6v-4.7c0-0.9-0.7-1.6-1.6-1.6h-4.7c-0.9 0-1.6 0.7-1.6 1.6v4.7c0 0.8 0.7 1.6 1.6 1.6z"/><path d="m69.7 74h4.7c0.9 0 1.6-0.7 1.6-1.6v-4.7c0-0.9-0.7-1.6-1.6-1.6h-4.7c-0.9 0-1.6 0.7-1.6 1.6v4.7c0 0.8 0.7 1.6 1.6 1.6z"/><path d="m57.7 74h4.7c0.9 0 1.6-0.7 1.6-1.6v-4.7c0-0.9-0.7-1.6-1.6-1.6h-4.7c-0.9 0-1.6 0.7-1.6 1.6v4.7c0 0.8 0.7 1.6 1.6 1.6z"/><path d="m45.7 74h4.7c0.9 0 1.6-0.7 1.6-1.6v-4.7c0-0.9-0.7-1.6-1.6-1.6h-4.7c-0.9 0-1.6 0.7-1.6 1.6v4.7c-0.1 0.8 0.7 1.6 1.6 1.6z"/><path d="m33.7 74h4.7c0.9 0 1.6-0.7 1.6-1.6v-4.7c0-0.9-0.7-1.6-1.6-1.6h-4.7c-0.9 0-1.6 0.7-1.6 1.6v4.7c-0.1 0.8 0.7 1.6 1.6 1.6z"/><path d="m13.6 74h12.6c0.9 0 1.6-0.7 1.6-1.7v-4.7c0-0.9-0.7-1.7-1.6-1.7h-12.6c-0.9 0-1.6 0.7-1.6 1.7v4.7c0 0.9 0.7 1.7 1.6 1.7z"/><path d="m93.7 74.1h20.6c0.9 0 1.7-0.7 1.7-1.7v-5c0-0.9-0.7-1.7-1.7-1.7h-20.6c-0.9 0-1.7 0.7-1.7 1.7v5c0.1 1 0.8 1.7 1.7 1.7z"/><path d="m109.7 86h4.7c0.9 0 1.7-0.7 1.7-1.7v-4.7c0-0.9-0.7-1.7-1.7-1.7h-4.7c-0.9 0-1.7 0.7-1.7 1.7v4.7c0 0.9 0.8 1.7 1.7 1.7z"/><path d="m97.3 86h4.7c0.9 0 1.7-0.7 1.7-1.7v-4.7c0-0.9-0.7-1.7-1.7-1.7h-4.7c-0.9 0-1.7 0.7-1.7 1.7v4.7c0 0.9 0.7 1.7 1.7 1.7z"/><path d="m38.5 86h51c0.9 0 1.7-0.7 1.7-1.7v-4.7c0-0.9-0.7-1.7-1.7-1.7h-51c-0.9 0-1.7 0.7-1.7 1.7v4.7c0.1 0.9 0.8 1.7 1.7 1.7z"/><path d="m26.1 86h4.7c0.9 0 1.7-0.7 1.7-1.7v-4.7c0-0.9-0.7-1.7-1.6-1.7h-4.7c-0.9 0-1.6 0.7-1.6 1.7v4.7c-0.2 0.9 0.6 1.7 1.5 1.7z"/><path d="m13.6 86h4.7c0.9 0 1.6-0.7 1.6-1.7v-4.7c0-0.9-0.7-1.7-1.6-1.7h-4.7c-0.9 0-1.6 0.7-1.6 1.7v4.7c0 0.9 0.7 1.7 1.6 1.7z"/></g></svg>
